<?xml version="1.0" encoding="utf-8"?>
<!-- Generator: Adobe Illustrator 27.5.0, SVG Export Plug-In . SVG Version: 6.00 Build 0)  -->
<svg version="1.1" id="Layer_1" xmlns="http://www.w3.org/2000/svg" xmlns:xlink="http://www.w3.org/1999/xlink"
	 viewBox="0 0 4000 4000" xml:space="preserve">
<g>
	<rect x="-0.001" style="fill-rule:evenodd;clip-rule:evenodd;fill:#FFFFFF;"/>
	<path style="fill:#EAA416;" d="M2329.091,933.416c427.482,0,774.023,346.54,774.023,774.018s-346.541,774.018-774.023,774.018
		c-427.479,0-774.018-346.54-774.018-774.018S1901.612,933.416,2329.091,933.416"/>
	<path style="opacity:0.3;fill:#B86607;" d="M2003.658,2409.869c-264.873-122.93-448.578-391.215-448.578-702.435
		c0-301.653,172.57-562.97,424.352-690.69c44.853,24.09,87.122,53.41,125.953,87.595c75.51,66.477,135.533,149.302,174.987,241.851
		c47.324,39.288,118.905,104.415,145.969,155.868c11.845,22.517,18.785,47.972,17.641,73.522
		c-0.86,19.298-6.232,37.875-16.464,54.297c-10.923,17.528-26.349,31.073-44.57,40.653c-2.367,1.243-4.772,2.415-7.21,3.52
		c1.459,36.278-3.665,72.137-19.512,105.108c11.954,48.18,9.299,102.643-1.903,150.062c-2.021,8.562-5.217,16.658-9.363,24.265
		c30.945,51.837,61.269,123.562,16.903,174.582c-30.242,34.777-84.098,42.345-129.499,43.46
		C2177.149,2268.617,2098.227,2350.681,2003.658,2409.869"/>
	<path style="opacity:0.3;fill:#B86607;" d="M2699.537,1027.673c240.452,131.318,403.576,386.485,403.576,679.761
		c0,427.478-346.541,774.018-774.023,774.018c-371.684,0-682.125-262.002-756.845-611.38
		c101.938,160.932,262.516,271.062,442.771,311.228c-2.882,12.025-4.418,24.577-4.418,37.485
		c0,88.548,71.784,160.326,160.328,160.326c88.544,0,160.326-71.778,160.326-160.326c0-13.3-1.63-26.222-4.681-38.58
		c70.045-16.092,136.503-42.638,197.41-78.17c21.525,18.973,49.776,30.487,80.721,30.487c67.46,0,122.146-54.69,122.146-122.145
		c0-3.312-0.134-6.587-0.388-9.832c5.943,2.622,12.516,4.082,19.427,4.082c26.642,0,48.232-21.595,48.232-48.232
		s-21.59-48.232-48.232-48.232c-2.58,0-5.117,0.203-7.587,0.595c34.45-47.143,63.344-98.985,85.592-154.718
		c0.5-1.267,0.979-2.538,1.477-3.803c16.39,18.613,40.391,30.358,67.139,30.358c49.396,0,89.433-40.038,89.433-89.433
		c0-49.393-40.037-89.433-89.433-89.433c-9.613,0-18.868,1.522-27.551,4.328c4.152-25.437,6.889-50.99,8.229-76.55
		c6.16,2.603,12.931,4.04,20.036,4.04c28.469,0,51.548-23.078,51.548-51.543c0-28.47-23.08-51.548-51.548-51.548
		c-7.64,0-14.885,1.668-21.411,4.648C2859.736,1287.018,2801.031,1143.656,2699.537,1027.673"/>
	<path style="opacity:0.3;fill:#B86607;" d="M2170.927,2096.641c67.46,0,122.145,54.688,122.145,122.145
		c0,67.458-54.685,122.143-122.145,122.143c-67.455,0-122.146-54.685-122.146-122.143
		C2048.782,2151.329,2103.472,2096.641,2170.927,2096.641"/>
	<path style="opacity:0.3;fill:#B86607;" d="M2604.703,1920.939c49.394,0,89.437,40.045,89.437,89.438
		c0,49.393-40.043,89.433-89.437,89.433c-49.394,0-89.433-40.04-89.433-89.433
		C2515.27,1960.984,2555.309,1920.939,2604.703,1920.939"/>
	<path style="opacity:0.3;fill:#B86607;" d="M2745.887,1929.014c15.129,0,27.388,12.258,27.388,27.382s-12.26,27.383-27.388,27.383
		c-15.123,0-27.383-12.26-27.383-27.383S2730.765,1929.014,2745.887,1929.014"/>
	<path style="opacity:0.3;fill:#B86607;" d="M2892.508,1626.821c35.539,0,64.341,28.805,64.341,64.341
		c0,35.538-28.802,64.342-64.341,64.342c-35.537,0-64.341-28.803-64.341-64.342
		C2828.167,1655.626,2856.971,1626.821,2892.508,1626.821"/>
	<path style="opacity:0.3;fill:#B86607;" d="M2893.222,1446.425c19.649,0,35.579,15.932,35.579,35.58
		c0,19.649-15.93,35.575-35.579,35.575s-35.573-15.927-35.573-35.575C2857.649,1462.356,2873.573,1446.425,2893.222,1446.425"/>
	<path style="opacity:0.3;fill-rule:evenodd;clip-rule:evenodd;fill:#870000;" d="M2175.533,1345.786
		c35.532,0,64.342,28.808,64.342,64.345c0,35.538-28.811,64.342-64.342,64.342c-35.538,0-64.346-28.803-64.346-64.342
		C2111.187,1374.594,2139.996,1345.786,2175.533,1345.786"/>
	<path style="opacity:0.3;fill-rule:evenodd;clip-rule:evenodd;fill:#870000;" d="M2064.552,1495.761
		c67.455,0,122.145,54.685,122.145,122.145c0,67.455-54.689,122.145-122.145,122.145c-67.46,0-122.144-54.69-122.144-122.145
		C1942.408,1550.446,1997.092,1495.761,2064.552,1495.761"/>
	<path style="opacity:0.3;fill-rule:evenodd;clip-rule:evenodd;fill:#870000;" d="M1990.454,1365.93
		c19.65,0,35.575,15.927,35.575,35.575c0,19.65-15.925,35.58-35.575,35.58c-19.648,0-35.574-15.93-35.574-35.58
		C1954.879,1381.856,1970.805,1365.93,1990.454,1365.93"/>
	<path style="opacity:0.3;fill:#B86607;" d="M2598.16,1394.664c35.537,0,64.347-28.81,64.347-64.347
		c0-35.532-28.811-64.342-64.347-64.342c-35.532,0-64.341,28.81-64.341,64.342
		C2533.819,1365.854,2562.627,1394.664,2598.16,1394.664"/>
	<path style="opacity:0.3;fill:#B86607;" d="M2487.184,1244.688c67.454,0,122.14-54.685,122.14-122.145
		c0-67.455-54.686-122.145-122.14-122.145c-67.46,0-122.146,54.69-122.146,122.145
		C2365.038,1190.003,2419.724,1244.688,2487.184,1244.688"/>
	<path style="opacity:0.3;fill:#B86607;" d="M2413.085,1374.52c19.65,0,35.575-15.927,35.575-35.575
		c0-19.648-15.925-35.575-35.575-35.575c-19.648,0-35.578,15.927-35.578,35.575
		C2377.507,1358.593,2393.437,1374.52,2413.085,1374.52"/>
	<path style="opacity:0.3;fill-rule:evenodd;clip-rule:evenodd;fill:#870000;" d="M1721.277,1562.201
		c49.393,0,89.437,40.04,89.437,89.433c0,49.393-40.044,89.433-89.437,89.433c-49.395,0-89.434-40.04-89.434-89.433
		C1631.844,1602.241,1671.883,1562.201,1721.277,1562.201"/>
	<path style="opacity:0.3;fill:#B86607;" d="M2311.451,1805.938c49.393,0,89.437,40.045,89.437,89.438
		c0,49.393-40.044,89.433-89.437,89.433c-49.395,0-89.434-40.04-89.434-89.433
		C2222.017,1845.983,2262.056,1805.938,2311.451,1805.938"/>
	<path style="fill-rule:evenodd;clip-rule:evenodd;" d="M2315.97,1758.963c6.175,20.57,17.802,74.112,0.587,146.967
		c-2.519,10.663-7.62,20.618-14.987,29.915c49.877,78.113,54.767,127.238,28.309,157.663
		c-22.548,25.937-67.129,34.687-125.21,34.511c-57.675,107.217-144.79,195.912-249.718,255.767
		c-104.673,59.712-227.07,90.773-355.629,82.96c-112.186-6.813-216.18-42.492-305.155-99.34
		c-88.889-56.802-162.732-134.797-214.719-226.305c-16.38,1.318-31.039,1.55-44.046,0.762c-26.73-1.625-47.38-7.597-62.437-17.477
		c-16.839-11.055-26.514-26.465-29.647-45.742c-1.034-6.371-1.337-12.94-0.93-19.677c2.598-42.765,21.227-83.197,30.741-101.333
		c-14.935-24.473-22.956-55.12-20.678-92.632c1.35-22.243,6.391-47.022,15.863-74.508c-36.709-46.39-29.57-106.918-24.099-133.086
		c-8.41-6.175-16.04-13.228-22.596-21.077c-12.937-15.477-21.644-33.948-24.057-54.778c-2.24-19.38,1.01-40.527,11.456-62.835
		l0.07,0.005c37.398-79.872,112.455-124.337,135.531-136.532c8.631-25.195,18.788-49.658,30.345-73.298l0.008-0.02
		c49.626-101.48,125.132-187.7,217.308-250.483c113.57-77.347,252.412-119.187,399.293-110.267
		c147.533,8.962,280.782,67.733,384.312,158.882c73.862,65.022,132.592,146.552,170.603,238.238
		c19.914,16.36,115.161,96.302,144.424,151.932c10.348,19.677,15.497,40.442,14.627,60.028c-0.665,14.863-4.718,28.993-12.495,41.48
		c-7.767,12.469-19.135,23.188-34.419,31.223c-6.783,3.567-14.351,6.595-22.728,8.987
		C2340.988,1687.436,2333.937,1726.786,2315.97,1758.963"/>
	<path style="fill:#EAA416;" d="M1117.531,2136.566c48.628,80.943,115.667,150.072,195.594,201.142
		c83.949,53.642,182.202,87.312,288.34,93.761c121.494,7.378,237.124-21.955,335.985-78.35
		c94.125-53.693,173.084-131.892,227.477-226.267c-61.588-1.805-115.805,9.278-167.326,32.963
		c-54.415,25.015-106.318,64.327-161.016,117.533c-110.868,107.848-229.305,28.177-343.707-48.79
		c-11.895-8.002-23.748-15.982-36.754-24.472c-57.752-37.697-112.823-59.376-167.358-69.335
		c-54.686-9.983-109.054-8.263-165.184,0.86C1121.546,2135.942,1119.529,2136.264,1117.531,2136.566"/>
	<path style="fill:#DF7C09;" d="M1117.536,2136.552c48.636,80.962,115.653,150.093,195.589,201.147
		c83.954,53.63,182.197,87.316,288.34,93.778c0,0-214.323-52.625-276.188-140.928c-61.861-88.305,36.461-120.865,124.133-66.453
		c87.67,54.41,156.752,148.157,305.451,147.562c138.227-0.548,186.776-172.352,361.309-172.672
		c17.886-22.772,34.195-46.877,48.761-72.142c-61.601-1.797-115.824,9.292-167.335,32.967
		c-54.386,25.01-106.308,64.347-161.031,117.538c-110.858,107.82-229.265,28.177-343.69-48.78
		c-11.892-8.008-23.745-15.978-36.77-24.468c-57.729-37.685-112.815-59.385-167.34-69.34c-54.67-10.015-109.072-8.295-165.178,0.837
		C1121.537,2135.958,1119.519,2136.272,1117.536,2136.552"/>
	<path style="fill:#EAA416;" d="M2246.852,1465.243c-27.402-130.04-96.948-246.015-194.295-331.715
		c-97.823-86.127-223.729-141.653-363.127-150.123c-138.873-8.433-270.081,31.077-377.339,104.13
		c-86.815,59.127-157.975,140.207-204.884,235.607c-2.559,5.92-48.453,115.365,32.359,203.358
		c39.121,42.6,115.061,77.611,204.657,104.058c108.657,32.07,236.367,51.09,343.738,55.758
		c89.946,3.912,226.856-6.075,343.937-37.332c59.91-15.998,114.354-37.516,153.968-65.5c37.086-26.197,60.728-57.958,62.381-95.948
		C2248.559,1480.384,2248.108,1472.958,2246.852,1465.243"/>
	<path style="fill:#DF7C09;" d="M1674.614,982.715l0.037-0.005 M2246.844,1465.228c-27.412-130.02-96.932-246.005-194.315-331.677
		c-97.787-86.117-223.71-141.68-363.105-150.128l-14.774-0.713c0.856,0.218,210.715,52.677,299.173,153.61
		c88.627,101.135,192.799,366.968-37.308,412.267c-230.106,45.297-763.638,77.658-838.743-195.435l-0.005-0.033
		c-9.278,39.747-14.74,111.812,41.811,173.371c39.124,42.629,115.063,77.632,204.652,104.055
		c108.662,32.098,236.359,51.108,343.734,55.753c89.972,3.897,226.847-6.062,343.942-37.3
		c59.905-15.992,114.368-37.502,153.971-65.49c37.087-26.239,60.699-58.01,62.354-95.98
		C2248.539,1480.416,2248.086,1472.971,2246.844,1465.228z"/>
	<path style="fill:#66B100;" d="M1835.078,1717.501c19.572,4.91,40.894,11.745,64.371,20.467
		c18.858,7.002,30.003,11.248,40.393,15.203c95.235,36.278,140.442,53.5,165.382,0.685c4.707-9.958,8.59-18.727,12.344-27.203
		c30.549-68.972,53.882-121.635,159.497-116.933c28.611,1.27,50.06-3,65.202-10.965c9.363-4.923,16.223-11.315,20.779-18.628
		c4.545-7.295,6.916-15.648,7.313-24.507c0.595-13.327-3.136-27.897-10.597-42.08c-16.168-30.742-56.675-71.254-89.811-101.462
		c3.301,11.387,6.293,22.89,8.966,34.508l0.057,0.245c0.615,2.48,1.164,4.942,1.648,7.388c1.102,5.06,2.143,10.143,3.119,15.247
		l-0.84,0.16c0.634,6.628,0.804,13.125,0.524,19.493c-2.182,50.243-31.417,90.808-77.174,123.131
		c-43.218,30.53-101.588,53.731-165.353,70.753C1974.647,1700.693,1902.251,1711.771,1835.078,1717.501"/>
	<path style="fill:#98DB04;" d="M2222.04,1613.645c15.439-3.467,33.505-4.865,55.02-3.925c28.625,1.285,50.055-2.99,65.188-10.962
		c9.363-4.927,16.231-11.318,20.825-18.647c4.53-7.285,6.877-15.667,7.261-24.495c0.613-13.347-3.11-27.888-10.602-42.072
		c-16.135-30.757-56.647-71.263-89.788-101.48c68.533,81.273,76.313,164.807,15.383,176.032
		C2260.743,1592.636,2239.526,1602.043,2222.04,1613.645 M1895.625,1736.569l3.809,1.388c18.893,7.007,30.023,11.245,40.442,15.208
		c95.21,36.278,140.423,53.49,165.345,0.685c4.705-9.93,8.593-18.698,12.358-27.198l0.799-1.78
		c-20.071,6.968-48.311,8.9-89.197,1.288C1955.906,1712.551,1914.31,1726.616,1895.625,1736.569z"/>
	<path style="fill:#FF6C5C;" d="M976.766,1675.449c-5.29,37.545-3.201,114.827,97.574,134.542
		c22.281,4.362,47.721,10.37,76.243,17.108c115.96,27.392,284.219,67.118,397.614,37.115c-5.786-0.345-11.678-1.045-17.66-2.089
		c-38.001-6.638-79.506-27.417-121.828-58.905c-27.094-20.169-54.879-45.047-82.558-73.658
		c-84.302-87.146-155.712-69.467-217.981-54.057c-18.255,4.517-35.804,8.863-53.23,10.88
		C1028.698,1689.424,1001.196,1685.329,976.766,1675.449"/>
	<path style="fill:#D73C2C;" d="M976.766,1675.436c-5.266,37.545-3.198,114.845,97.541,134.55
		c22.313,4.375,47.764,10.385,76.271,17.08c67.483,15.968,152.665,36.09,234.417,44.197c-6.865-1.28-217.027-40.602-296.543-85.048
		c-80.82-45.17-4.317-94.743,75.214-82.655c78.736,12.162,174.496,144.713,378.53,160.172c-3.752-0.34-7.697-0.77-11.675-1.597
		c-37.993-6.657-79.493-27.433-121.828-58.908c-27.099-20.182-54.85-45.052-82.554-73.653
		c-84.293-87.156-155.703-69.492-217.957-54.067c-18.27,4.517-35.83,8.863-53.258,10.862
		C1028.674,1689.411,1001.201,1685.329,976.766,1675.436"/>
	<path style="fill:#FF6C5C;" d="M1644.931,1854.864c8.174,11.258,49.035,34.1,250.772,15.402
		c138.891-12.875,249.212-29.495,319.861-66.208c61.71-32.07,92.712-80.966,85.402-159.363c-7.999,0.523-16.487,0.605-25.483,0.203
		c-81.576-3.628-100.696,39.518-125.72,96.023c-4.164,9.397-8.472,19.11-12.672,28.01c-38.882,82.333-93.888,61.375-209.764,17.235
		c-14.819-5.645-30.481-11.612-40.119-15.188c-63.572-23.608-108.515-32.269-144.209-24.984
		c-16.435,3.355-31.28,10.333-45.515,21.023C1687.346,1804.781,1669.085,1833.444,1644.931,1854.864"/>
	<path style="fill:#D73C2C;" d="M2301.982,1663.058c-0.103-5.943-0.445-12.047-1.02-18.387c-8.023,0.538-16.451,0.6-25.47,0.198
		c-81.582-3.592-100.719,39.557-125.729,96.057c-4.169,9.373-8.485,19.086-12.657,27.987c-15.223,32.15-32.845,48.586-55.641,54
		c99.793-19.21,94.81-51.935,110.349-99.231C2204.504,1684.993,2244.542,1653.571,2301.982,1663.058 M1644.949,1854.854
		c8.155,11.281,49.025,34.12,250.767,15.417c51.222-4.735,98.637-10.058,141.524-16.64c-10.668,0.803-182.574,13.53-251.201-2.523
		c-70.862-16.592-39.388-90.222,42.142-72.273c79.37,17.475,148.621,60.968,244.795,45.572
		c-34.629,4.087-80.485-13.437-145.658-38.22c-14.829-5.637-30.458-11.642-40.109-15.2c-63.572-23.601-108.529-32.29-144.199-24.977
		c-16.437,3.335-31.29,10.298-45.525,21.042C1687.337,1804.758,1669.119,1833.444,1644.949,1854.854z"/>
	<path style="fill:#5E2C0B;" d="M996.916,1816.874c-5.305,18.28-8.258,35.008-9.183,50.273c-1.99,32.745,5.537,58.308,19.134,77.632
		c13.615,19.347,33.556,32.92,56.282,41.485c17.013,6.415,35.688,10.03,54.587,11.178c16.813,1.025,49.851,3.943,91.722,7.643
		c64.337,5.693,150.25,13.29,238.726,19.043c93.505,6.077,386.574,7.678,602.162-27.68
		c124.026-20.339,220.734-51.552,231.842-98.555c10.388-43.962,9.25-79.073,5.858-102.435
		c-15.397,15.26-34.223,28.427-56.263,39.878c-75.893,39.435-190.012,56.887-332.826,70.125
		c-187.691,17.4-254.546-9.505-278.249-32.598c-118.994,73.427-335.481,22.308-478.162-11.395
		c-29.092-6.875-55.037-13.002-74.871-16.882C1037.858,1838.754,1014.756,1829.008,996.916,1816.874"/>
	<path style="fill:#9E6C4B;" d="M994.492,1825.851c-3.775,14.817-6,28.55-6.77,41.325c-1.994,32.702,5.551,58.275,19.139,77.598
		c13.63,19.355,33.59,32.915,56.268,41.498c17.045,6.393,35.683,10.027,54.59,11.188c16.844,1.012,49.88,3.925,91.748,7.62
		c64.347,5.722,150.212,13.29,238.697,19.035c93.515,6.08,386.587,7.697,602.173-27.672
		c124.044-20.367,220.739-51.543,231.845-98.532c10.375-44.008,9.283-79.072,5.864-102.443
		c-22.381,187.062-238.594,160.232-379.2,175.257c-140.604,15.023-386.623,32.98-675.832,4.813
		C989.796,1951.851,988.686,1855.809,994.492,1825.851"/>
	<path style="fill:#F9D92E;" d="M2275.266,1960.161c-46.352,33.062-126.072,55.787-219.289,71.075
		c-218.376,35.815-515.32,34.19-610.067,28.03c-89.452-5.812-175.276-13.408-239.55-19.092c-39.129-3.458-70.007-6.188-90.77-7.45
		c-22.073-1.342-44.225-5.693-64.82-13.46c-19.643-7.403-37.78-17.902-53.035-31.843c-8.245,18.038-18.34,45.345-20.065,73.692
		c-0.27,4.445-0.128,8.423,0.438,11.897c1.488,9.175,6.128,16.54,14.217,21.85c9.878,6.477,24.798,10.483,45.221,11.722
		c21.487,1.308,48.162-0.515,80.401-5.755c60.005-9.751,118.256-11.57,177.079-0.826c58.97,10.767,118.329,34.086,180.322,74.552
		c11.5,7.507,24.306,16.123,37.153,24.765c102.736,69.118,209.093,140.665,299.48,52.743
		c57.401-55.833,112.442-97.357,170.966-124.261c59.065-27.152,121.21-39.204,192.265-35.787
		c62.954,3.029,110.202-1.106,127.989-21.567C2318.414,2052.944,2312.159,2018.953,2275.266,1960.161"/>
	<path style="fill:#EAA416;" d="M997.511,1987.927c-8.14,18.037-18.093,45.137-19.828,73.18c-0.278,4.478-0.155,8.448,0.43,11.902
		c1.512,9.183,6.123,16.568,14.207,21.863c9.898,6.458,24.808,10.485,45.213,11.698c21.51,1.308,48.193-0.497,80.419-5.763
		c60-9.757,118.266-11.547,177.089-0.827c58.975,10.777,118.324,34.086,180.341,74.578c11.485,7.493,24.27,16.115,37.128,24.767
		c102.728,69.118,209.093,140.663,299.482,52.738c57.415-55.833,112.44-97.37,170.975-124.272
		c59.06-27.16,121.199-39.178,192.251-35.782c62.949,3.029,110.205-1.115,127.999-21.582c15.193-17.472,8.971-51.482-27.917-110.258
		c13.88,142.635-202.351,95.905-313.701,117.453c-111.348,21.548-160.01,141.955-254.9,162.133
		c-94.89,20.177-253.12-118.763-336.179-154.687c-83.065-35.93-175.432-21.293-233.424-20.108
		c-57.986,1.187-117.732,44.765-134.608-2.866C986.872,2018.186,995.971,1991.744,997.511,1987.927"/>
	<path style="fill:#66B100;" d="M1057.143,1415.415c-23.391,12.83-84.941,51.543-116.169,118.223l0.057,0.028
		c-7.501,16.03-9.893,30.778-8.371,43.932c1.573,13.588,7.392,25.805,16.057,36.175c9.062,10.838,21.318,19.767,35.259,26.292
		c20.557,9.623,44.423,13.837,67.011,11.225c15.317-1.772,31.71-5.83,48.75-10.048c71.377-17.67,153.232-37.928,251.694,63.85
		c26.026,26.905,52.393,50.48,78.368,69.808c38.032,28.298,74.452,46.818,106.73,52.455c29.575,5.163,55.72-0.808,76.18-20.598
		c3.643-3.52,7.295-7.73,10.947-12.638c25.692-34.522,50.797-58.365,79.998-72.057c-5.922-0.137-11.688-0.327-17.276-0.567
		c-110.022-4.782-240.845-24.26-352.096-57.095c-95.215-28.105-176.83-66.312-220.653-114.023
		C1072.985,1506.118,1059.246,1457.418,1057.143,1415.415"/>
	<path style="fill:#98DB04;" d="M1324.724,1680.074c8.774,7.395,17.655,15.657,26.707,24.998
		c26.026,26.913,52.393,50.517,78.396,69.84c37.975,28.271,74.42,46.777,106.668,52.427c29.616,5.212,55.757-0.812,76.2-20.594
		c3.642-3.525,7.336-7.71,10.97-12.618c3.439-4.607,6.859-9.057,10.295-13.295c-70.724,24.798-154.238-8.24-203.58-40.545
		C1398.859,1719.646,1365.485,1696.936,1324.724,1680.074 M1057.152,1415.438c-23.371,12.803-84.95,51.538-116.173,118.205
		l0.039,0.032c-7.508,16.012-9.898,30.785-8.338,43.91c1.558,13.592,7.388,25.837,16.048,36.198
		c9.029,10.803,21.326,19.762,35.249,26.277c20.57,9.6,44.447,13.841,67.006,11.225c15.33-1.743,31.743-5.812,48.765-10.035
		l8.078-2.007c-55.875-20.68-90.831-59.397-106.661-98.613C978.194,1483.696,1057.152,1415.438,1057.152,1415.438z"/>
	<path style="fill-rule:evenodd;clip-rule:evenodd;fill:#EAA416;" d="M1705.355,2197.917c16.749-1.427,31.502,11.008,32.928,27.752
		c1.427,16.747-11.004,31.502-27.75,32.928c-16.749,1.432-31.503-11.003-32.931-27.752
		C1676.178,2214.099,1688.607,2199.349,1705.355,2197.917"/>
	<path style="fill-rule:evenodd;clip-rule:evenodd;fill:#EAA416;" d="M1747.162,2183.361c6.222-0.528,11.707,4.092,12.234,10.313
		c0.53,6.223-4.089,11.703-10.313,12.237c-6.222,0.53-11.702-4.092-12.232-10.313
		C1736.319,2189.376,1740.939,2183.896,1747.162,2183.361"/>
	<path style="fill-rule:evenodd;clip-rule:evenodd;fill:#EAA416;" d="M1719.051,2168.417c6.224-0.533,11.703,4.087,12.237,10.31
		c0.53,6.227-4.091,11.707-10.313,12.235c-6.221,0.535-11.702-4.087-12.236-10.308
		C1708.209,2174.427,1712.829,2168.948,1719.051,2168.417"/>
	<path style="fill-rule:evenodd;clip-rule:evenodd;fill:#EAA416;" d="M1748.574,2151.954c6.222-0.535,11.703,4.087,12.232,10.308
		c0.533,6.222-4.087,11.707-10.309,12.237c-6.221,0.528-11.706-4.092-12.236-10.313
		C1737.733,2157.962,1742.352,2152.482,1748.574,2151.954"/>
	<path style="fill-rule:evenodd;clip-rule:evenodd;fill:#EAA416;" d="M1656.099,2205.188c6.227-0.533,11.706,4.087,12.236,10.31
		c0.528,6.227-4.086,11.707-10.31,12.235c-6.227,0.535-11.707-4.087-12.235-10.308
		C1645.256,2211.198,1649.878,2205.718,1656.099,2205.188"/>
	<path style="fill-rule:evenodd;clip-rule:evenodd;fill:#EAA416;" d="M1674.594,2174.182c6.224-0.535,11.708,4.087,12.237,10.308
		c0.53,6.227-4.086,11.707-10.313,12.237c-6.222,0.528-11.702-4.086-12.232-10.313
		C1663.752,2180.191,1668.372,2174.711,1674.594,2174.182"/>
	<path style="fill-rule:evenodd;clip-rule:evenodd;fill:#EAA416;" d="M1640.631,2174.049c6.221-0.533,11.703,4.087,12.231,10.308
		c0.533,6.223-4.086,11.708-10.308,12.237c-6.222,0.53-11.707-4.092-12.237-10.313
		C1629.789,2180.059,1634.404,2174.579,1640.631,2174.049"/>
	<path style="fill-rule:evenodd;clip-rule:evenodd;fill:#EAA416;" d="M1690.969,2144.853c6.227-0.528,11.708,4.087,12.237,10.313
		c0.53,6.222-4.087,11.703-10.314,12.232c-6.221,0.533-11.702-4.087-12.231-10.308
		C1680.128,2150.867,1684.747,2145.383,1690.969,2144.853"/>
	<path style="fill-rule:evenodd;clip-rule:evenodd;fill:#EAA416;" d="M2231.164,2032.733c11.295-0.963,21.25,7.427,22.213,18.723
		c0.963,11.302-7.426,21.25-18.723,22.215c-11.301,0.963-21.255-7.423-22.219-18.723
		C2211.472,2043.651,2219.862,2033.698,2231.164,2032.733"/>
	<path style="fill-rule:evenodd;clip-rule:evenodd;fill:#EAA416;" d="M2259.367,2022.911c4.2-0.358,7.895,2.76,8.255,6.96
		c0.358,4.195-2.76,7.893-6.955,8.253c-4.2,0.358-7.9-2.76-8.258-6.96C2252.054,2026.969,2255.167,2023.271,2259.367,2022.911"/>
	<path style="fill-rule:evenodd;clip-rule:evenodd;fill:#EAA416;" d="M2240.399,2012.829c4.2-0.358,7.9,2.758,8.259,6.955
		c0.354,4.2-2.759,7.898-6.959,8.258c-4.2,0.353-7.895-2.76-8.253-6.96C2233.085,2016.883,2236.203,2013.188,2240.399,2012.829"/>
	<path style="fill-rule:evenodd;clip-rule:evenodd;fill:#EAA416;" d="M2260.317,2001.718c4.2-0.355,7.9,2.758,8.253,6.958
		c0.36,4.2-2.754,7.895-6.953,8.253c-4.2,0.36-7.9-2.758-8.254-6.953C2253.003,2005.776,2256.122,2002.076,2260.317,2001.718"/>
	<path style="fill-rule:evenodd;clip-rule:evenodd;fill:#EAA416;" d="M2197.932,2037.638c4.195-0.36,7.893,2.758,8.253,6.953
		c0.358,4.2-2.76,7.9-6.96,8.258c-4.195,0.36-7.893-2.758-8.253-6.958C2190.614,2041.696,2193.732,2037.996,2197.932,2037.638"/>
	<path style="fill-rule:evenodd;clip-rule:evenodd;fill:#EAA416;" d="M2210.409,2016.718c4.195-0.36,7.895,2.758,8.253,6.955
		c0.36,4.2-2.758,7.898-6.955,8.257c-4.2,0.36-7.898-2.759-8.256-6.958C2203.091,2020.776,2206.209,2017.076,2210.409,2016.718"/>
	<path style="fill-rule:evenodd;clip-rule:evenodd;fill:#EAA416;" d="M2187.49,2016.627c4.2-0.358,7.895,2.758,8.254,6.955
		c0.359,4.2-2.759,7.898-6.954,8.258c-4.2,0.358-7.9-2.76-8.258-6.96C2180.177,2020.686,2183.29,2016.986,2187.49,2016.627"/>
	<path style="fill-rule:evenodd;clip-rule:evenodd;fill:#EAA416;" d="M2221.454,1996.931c4.199-0.359,7.9,2.76,8.258,6.955
		c0.355,4.2-2.759,7.9-6.959,8.253c-4.199,0.36-7.895-2.758-8.253-6.953C2214.14,2000.986,2217.259,1997.286,2221.454,1996.931"/>
	<path style="fill-rule:evenodd;clip-rule:evenodd;fill:#EAA416;" d="M1034.788,2061.038c9.26-0.79,17.408,6.085,18.203,15.34
		c0.788,9.255-6.084,17.408-15.339,18.198c-9.257,0.789-17.41-6.08-18.201-15.335
		C1018.662,2069.981,1025.533,2061.831,1034.788,2061.038"/>
	<path style="fill-rule:evenodd;clip-rule:evenodd;fill:#EAA416;" d="M1057.895,2052.996c3.439-0.297,6.468,2.258,6.765,5.698
		c0.293,3.438-2.263,6.467-5.702,6.76c-3.44,0.293-6.469-2.258-6.762-5.697C1051.904,2056.317,1054.454,2053.289,1057.895,2052.996"
		/>
	<path style="fill-rule:evenodd;clip-rule:evenodd;fill:#EAA416;" d="M1042.361,2044.733c3.438-0.292,6.467,2.258,6.76,5.698
		c0.293,3.44-2.258,6.472-5.699,6.765c-3.438,0.293-6.472-2.263-6.765-5.702C1036.366,2048.054,1038.921,2045.026,1042.361,2044.733
		"/>
	<path style="fill-rule:evenodd;clip-rule:evenodd;fill:#EAA416;" d="M1058.674,2035.634c3.438-0.293,6.467,2.258,6.761,5.697
		c0.298,3.44-2.258,6.468-5.697,6.762c-3.44,0.297-6.469-2.258-6.762-5.698C1052.682,2038.956,1055.235,2035.928,1058.674,2035.634"
		/>
	<path style="fill-rule:evenodd;clip-rule:evenodd;fill:#EAA416;" d="M1007.566,2065.058c3.438-0.293,6.467,2.258,6.765,5.698
		c0.292,3.438-2.263,6.467-5.704,6.76c-3.438,0.293-6.467-2.258-6.76-5.698C1001.575,2068.379,1004.126,2065.351,1007.566,2065.058"
		/>
	<path style="fill-rule:evenodd;clip-rule:evenodd;fill:#EAA416;" d="M1017.79,2047.917c3.438-0.293,6.467,2.263,6.76,5.702
		c0.293,3.44-2.258,6.469-5.699,6.762c-3.438,0.292-6.467-2.258-6.76-5.698C1011.798,2051.244,1014.349,2048.211,1017.79,2047.917"
		/>
	<path style="fill-rule:evenodd;clip-rule:evenodd;fill:#EAA416;" d="M999.014,2047.846c3.438-0.292,6.467,2.258,6.765,5.698
		c0.294,3.44-2.263,6.468-5.702,6.76c-3.439,0.298-6.468-2.258-6.762-5.697C993.023,2051.167,995.574,2048.139,999.014,2047.846"/>
	<path style="fill-rule:evenodd;clip-rule:evenodd;fill:#EAA416;" d="M1026.841,2031.708c3.438-0.292,6.467,2.263,6.76,5.703
		c0.294,3.438-2.258,6.467-5.697,6.76c-3.44,0.293-6.473-2.258-6.767-5.698C1020.846,2035.034,1023.401,2032.001,1026.841,2031.708"
		/>
	<path style="fill:#F9D92E;" d="M1374.33,1263.411c9.179-0.785,17.736,11.887,19.133,28.298c1.404,16.413-4.885,30.345-14.064,31.13
		c-9.179,0.783-17.735-11.887-19.139-28.3C1358.862,1278.131,1365.151,1264.194,1374.33,1263.411"/>
	<path style="fill:#F9D92E;" d="M1440.599,1155.123c9.18-0.785,17.737,11.887,19.135,28.298c1.404,16.413-4.885,30.345-14.064,31.13
		c-9.18,0.783-17.735-11.887-19.139-28.3C1425.132,1169.845,1431.421,1155.906,1440.599,1155.123"/>
	<path style="fill:#F9D92E;" d="M1504.838,1273.421c-10.602,0.903-18.044,14.938-16.64,31.347
		c1.399,16.413,11.108,28.985,21.71,28.082c10.6-0.907,18.041-14.938,16.638-31.35
		C1525.147,1285.086,1515.44,1272.515,1504.838,1273.421"/>
	<path style="fill:#F9D92E;" d="M1312.814,1198.445c9.18-0.783,17.735,11.887,19.139,28.3c1.398,16.413-4.89,30.345-14.071,31.128
		c-9.178,0.785-17.735-11.887-19.132-28.299C1297.346,1213.166,1303.634,1199.23,1312.814,1198.445"/>
	<path style="fill:#F9D92E;" d="M1515.892,1100.395c9.181-0.783,17.735,11.887,19.139,28.3c1.399,16.406-4.89,30.345-14.069,31.128
		c-9.18,0.785-17.737-11.887-19.14-28.298C1500.424,1115.111,1506.713,1101.179,1515.892,1100.395"/>
	<path style="fill:#F9D92E;" d="M1722.604,1054.795c9.18-0.783,17.735,11.887,19.139,28.295c1.398,16.412-4.89,30.35-14.069,31.133
		c-9.18,0.78-17.737-11.887-19.134-28.298C1707.138,1069.511,1713.424,1055.575,1722.604,1054.795"/>
	<path style="fill:#F9D92E;" d="M1632.83,1179.473c9.181-0.785,17.735,11.885,19.139,28.298c1.399,16.413-4.89,30.345-14.068,31.13
		c-9.18,0.783-17.735-11.887-19.135-28.3C1617.364,1194.193,1623.651,1180.256,1632.83,1179.473"/>
	<path style="fill:#F9D92E;" d="M1722.879,1254.051c9.179-0.778,17.74,11.887,19.139,28.3c1.399,16.412-4.89,30.35-14.07,31.128
		c-9.176,0.785-17.735-11.887-19.134-28.293C1707.41,1268.773,1713.704,1254.836,1722.879,1254.051"/>
	<path style="fill:#F9D92E;" d="M1618.696,1273.421c9.18-0.783,17.735,11.887,19.139,28.295c1.398,16.413-4.89,30.35-14.069,31.133
		c-9.18,0.78-17.737-11.886-19.135-28.298C1603.227,1288.138,1609.516,1274.201,1618.696,1273.421"/>
	<path style="fill:#DF7C09;" d="M1707.316,1576.243c0,0,298.138-28.9,256.8-336.313c0,0,79.148,132.143,48.563,321.913
		l-61.086,44.46C1951.593,1606.303,1659.107,1646.329,1707.316,1576.243"/>
	<path style="fill:#DF7C09;" d="M1674.651,982.71c0,0,204.832,43.21,194.518,329.395c0,0,50.206-119.003,37.087-255.24
		l-41.711-28.867l-37.149-10.45l-30.806-7.158L1674.651,982.71z"/>
	<path style="fill:#DF7C09;" d="M1529.744,2409.954c0,0-92.526-36.908-106.861-142.885c0,0-43.796,26.338-38.928,92.375
		l31.29,22.267l21,6.903L1529.744,2409.954z"/>
	<path style="fill-rule:evenodd;clip-rule:evenodd;" d="M3223.996,2637.929v269.047h-65.322v-161.353l-59.983,161.353h-52.714
		l-60.364-161.732v161.732h-65.324v-269.047h77.167l75.256,186.265l74.5-186.265H3223.996z M2715.14,2637.929V2798.9
		c0,16.095,3.951,28.483,11.845,37.175c7.898,8.688,19.484,13.025,34.768,13.025c15.277,0,26.994-4.337,35.144-13.025
		c8.15-8.692,12.221-21.08,12.221-37.175v-160.971h65.33v160.583c0,24.018-5.092,44.33-15.283,60.94
		c-10.187,16.607-23.877,29.127-41.064,37.563c-17.194,8.428-36.354,12.648-57.497,12.648c-21.136,0-40.047-4.158-56.73-12.458
		c-16.677-8.302-29.858-20.825-39.539-37.56c-9.676-16.738-14.518-37.115-14.518-61.133v-160.583H2715.14z M2513.055,2909.664
		c-19.605,0-37.181-3.198-52.719-9.587c-15.536-6.387-27.95-15.84-37.249-28.36c-9.297-12.52-14.197-27.59-14.706-45.222h69.525
		c1.019,9.958,4.46,17.565,10.316,22.805c5.858,5.233,13.499,7.852,22.919,7.852c9.682,0,17.326-2.235,22.923-6.705
		c5.603-4.473,8.406-10.667,8.406-18.59c0-6.642-2.232-12.137-6.685-16.478c-4.456-4.347-9.932-7.918-16.427-10.73
		c-6.498-2.81-15.729-6.008-27.701-9.585c-17.315-5.363-31.444-10.73-42.401-16.096c-10.951-5.362-20.371-13.285-28.271-23.758
		c-7.895-10.48-11.845-24.147-11.845-41.013c0-25.038,9.043-44.645,27.128-58.828c18.081-14.182,41.637-21.273,70.673-21.273
		c29.545,0,53.357,7.092,71.438,21.273c18.081,14.183,27.761,33.917,29.037,59.212h-70.679c-0.509-8.683-3.688-15.52-9.552-20.505
		c-5.853-4.978-13.365-7.473-22.534-7.473c-7.895,0-14.263,2.107-19.102,6.322c-4.841,4.218-7.256,10.285-7.256,18.207
		c0,8.688,4.073,15.458,12.221,20.315c8.155,4.854,20.887,10.092,38.203,15.713c17.32,5.878,31.392,11.5,42.218,16.862
		c10.823,5.372,20.18,13.158,28.076,23.382c7.894,10.218,11.843,23.381,11.843,39.477c0,15.327-3.884,29.253-11.656,41.773
		c-7.766,12.52-19.033,22.483-33.805,29.891C2550.618,2905.956,2533.176,2909.664,2513.055,2909.664z M2278.493,2758.271
		c12.481,0,21.774-2.94,27.888-8.812c6.113-5.877,9.169-14.183,9.169-24.912c0-10.734-3.057-19.04-9.169-24.917
		c-6.114-5.874-15.407-8.812-27.888-8.812h-35.528v67.452H2278.493z M2382.022,2724.547c0,15.585-3.568,29.825-10.696,42.731
		c-7.133,12.903-18.085,23.31-32.858,31.233c-14.769,7.923-33.108,11.882-55.012,11.882h-40.492v96.582h-65.33v-269.047h105.822
		c21.394,0,39.479,3.705,54.25,11.113c14.774,7.412,25.848,17.63,33.237,30.66
		C2378.329,2692.732,2382.022,2707.681,2382.022,2724.547z M2130.264,2637.929v269.047h-65.325v-269.047H2130.264z
		 M2017.956,2637.929v269.047h-65.326v-161.353l-59.979,161.353h-52.715l-60.365-161.732v161.732h-65.324v-269.047h77.169
		l75.254,186.265l74.498-186.265H2017.956z M1572.897,2690.437v54.42h87.482v50.593h-87.482v59.022h98.944v52.503h-164.274v-269.047
		h164.274v52.508H1572.897z M1323.818,2759.041h40.492c11.971,0,20.953-2.943,26.935-8.817c5.984-5.877,8.98-14.178,8.98-24.912
		c0-10.218-2.996-18.268-8.98-24.147c-5.981-5.872-14.964-8.815-26.935-8.815h-40.492V2759.041z M1395.254,2906.976l-55.772-101.565
		h-15.665v101.565h-65.325v-269.047h109.639c21.142,0,39.155,3.705,54.057,11.113c14.895,7.412,26.04,17.57,33.43,30.472
		c7.378,12.902,11.079,27.273,11.079,43.115c0,17.882-5.032,33.855-15.091,47.91c-10.063,14.05-24.898,24.015-44.508,29.892
		l61.89,106.545H1395.254z M1085.054,2849.872c21.393,0,38.523-7.153,51.383-21.464c12.86-14.31,19.29-33.218,19.29-56.721
		c0-23.763-6.43-42.737-19.29-56.915c-12.86-14.178-29.991-21.273-51.383-21.273c-21.647,0-38.9,7.03-51.765,21.08
		c-12.86,14.055-19.29,33.09-19.29,57.108c0,23.763,6.43,42.731,19.29,56.915
		C1046.155,2842.781,1063.407,2849.872,1085.054,2849.872z M1085.054,2909.664c-25.214,0-48.326-5.882-69.335-17.632
		c-21.013-11.755-37.697-28.172-50.05-49.251c-12.35-21.077-18.525-44.778-18.525-71.093s6.175-49.952,18.525-70.903
		c12.352-20.948,29.036-37.305,50.05-49.058c21.009-11.755,44.121-17.632,69.335-17.632c25.215,0,48.327,5.877,69.34,17.632
		c21.01,11.753,37.56,28.11,49.663,49.058c12.095,20.952,18.142,44.588,18.142,70.903s-6.109,50.017-18.335,71.093
		c-12.226,21.08-28.782,37.497-49.663,49.251C1133.314,2903.782,1110.269,2909.664,1085.054,2909.664z M2758.412,2965.312h-12.124
		v99.005h15.926v-69.87l55.975,69.87h11.975v-99.005h-15.784v70.437L2758.412,2965.312z M2627.593,3029.097h-41.726l20.862-47.098
		L2627.593,3029.097z M2642.823,3064.317h16.772l-44.267-99.005h-17.198l-44.269,99.005h16.777l9.308-20.792h53.428
		L2642.823,3064.317z M2471.546,2977.899c-10.059-9.998-22.234-14.997-36.52-14.997c-16.162,0-28.851,5.07-38.06,15.208
		c-9.212,10.133-13.818,22.701-13.818,37.691c0,6.788,1.035,13.133,3.1,19.02c2.073,5.897,5.125,11.225,9.166,15.988
		c4.042,4.762,9.472,8.532,16.284,11.315c6.812,2.777,14.594,4.167,23.329,4.167c15.417,0,28.339-5.745,38.773-17.248v-40.598
		h-42.155v14.145h27.491v20.088c-6.95,5.845-14.986,8.768-24.11,8.768c-12.028,0-21.094-3.443-27.203-10.327
		c-6.114-6.883-9.164-15.322-9.164-25.318c-0.094-10.843,3.146-19.942,9.728-27.293c6.577-7.355,15.458-11.032,26.64-11.032
		c4.707,0,9.474,0.917,14.315,2.755c4.839,1.838,8.954,4.455,12.332,7.852L2471.546,2977.899z M2212.158,3015.519
		c0-11.122,3.074-20.178,9.237-27.157c6.149-6.977,14.771-10.463,25.865-10.463c7.611,0.094,14.122,2.05,19.526,5.867
		c5.406,3.822,9.255,8.462,11.56,13.937c2.302,5.467,3.453,11.405,3.453,17.817c0,10.375-2.91,19.025-8.74,25.955
		c-5.825,6.932-14.518,10.395-26.078,10.395c-5.83,0-11.021-1.058-15.581-3.185c-4.558-2.117-8.197-4.947-10.922-8.48
		c-2.726-3.538-4.771-7.404-6.133-11.598C2212.973,3024.41,2212.25,3020.044,2212.158,3015.519z M2247.259,2963.47
		c-14.849,0-27.018,4.88-36.51,14.64c-9.497,9.757-14.24,22.181-14.24,37.267c0,6.695,1.055,13.038,3.17,19.025
		c2.117,5.985,5.17,11.385,9.167,16.195c3.992,4.81,9.278,8.65,15.86,11.528c6.576,2.872,14.001,4.313,22.275,4.313
		c8.268,0,15.69-1.395,22.271-4.172c6.582-2.788,11.868-6.582,15.865-11.387c3.991-4.813,7.05-10.257,9.161-16.337
		c2.117-6.085,3.17-12.515,3.17-19.308c0-14.33-4.367-26.513-13.106-36.563C2275.595,2968.634,2263.237,2963.564,2247.259,2963.47z
		 M2049.197,2965.312v99.005h67.805v-14.707h-52.014v-84.298H2049.197z M1954.049,2979.174
		c-6.96-11.127-19.225-16.692-36.799-16.692c-4.701,0-9.208,0.538-13.537,1.625c-4.321,1.082-8.366,2.712-12.122,4.88
		c-3.762,2.17-6.77,5.142-9.02,8.912c-2.258,3.773-3.386,8.112-3.386,13.01c0,4.058,0.726,7.663,2.187,10.82
		c1.455,3.16,3.288,5.73,5.499,7.71c2.207,1.978,5.097,3.675,8.669,5.092c3.572,1.413,6.978,2.5,10.219,3.251
		c3.24,0.755,7.119,1.417,11.632,1.983c7.893,1.035,14.073,2.755,18.538,5.16c4.463,2.404,6.698,6.104,6.698,11.102
		c0,3.865-1.293,7.097-3.878,9.69s-5.66,4.36-9.237,5.305c-3.567,0.94-7.517,1.413-11.839,1.413c-14.098,0-24.34-5.42-30.738-16.267
		l-11.838,7.923c8.083,14.99,22.228,22.488,42.435,22.488c7.326,0,13.931-0.968,19.803-2.902c5.879-1.937,10.857-5.258,14.943-9.968
		c4.092-4.72,6.134-10.61,6.134-17.683c0-5.277-1.054-9.832-3.171-13.648c-2.111-3.818-5.188-6.832-9.232-9.052
		c-4.045-2.212-8.131-3.888-12.265-5.018c-4.138-1.134-9.118-2.125-14.944-2.972c-7.799-1.133-13.748-2.688-17.834-4.667
		c-4.09-1.985-6.132-5.137-6.132-9.478c0-4.62,2.117-8.272,6.34-10.96c4.228-2.688,9.731-4.035,16.498-4.035
		c5.169,0.1,9.936,1.11,14.311,3.043c4.369,1.932,7.728,4.602,10.076,7.988L1954.049,2979.174z M1754.428,2979.735
		c6.11,0,10.762,1.815,13.962,5.443c3.193,3.633,4.789,7.898,4.789,12.803c0,4.998-1.596,9.193-4.789,12.59
		c-3.199,3.392-7.896,5.093-14.099,5.093h-30.028v-35.93H1754.428z M1791.936,3061.487l-29.472-32.953
		c9.119-1.322,15.86-4.837,20.235-10.54c4.37-5.702,6.551-12.472,6.551-20.292c0-8.862-3.074-16.478-9.234-22.842
		c-6.151-6.364-14.678-9.549-25.588-9.549c-5.069,0-12.732-0.028-22.979-0.07c-10.244-0.053-17.902-0.077-22.975-0.077v99.152
		h15.788v-34.228h20.864l30.028,34.228h18.471L1791.936,3061.487z M1596.269,2965.454v57.846c0,9.235-2.542,16.378-7.617,21.428
		c-5.073,5.042-11.65,7.328-19.738,6.857c-7.518-0.285-13.577-2.873-18.183-7.782c-4.607-4.9-6.908-11.735-6.908-20.503v-57.846
		h-15.652v57.846c0,13.388,3.88,23.81,11.632,31.257c7.757,7.45,17.456,11.315,29.112,11.598c12.506,0.467,22.792-3.043,30.88-10.54
		c8.078-7.498,12.122-18.265,12.122-32.315v-57.846H1596.269z M1352.386,3015.519c0-11.122,3.079-20.178,9.237-27.157
		c6.154-6.977,14.777-10.463,25.87-10.463c7.611,0.094,14.122,2.05,19.526,5.867c5.401,3.822,9.255,8.462,11.56,13.937
		c2.3,5.467,3.448,11.405,3.448,17.817c0,10.375-2.909,19.025-8.735,25.955c-5.825,6.932-14.523,10.395-26.083,10.395
		c-5.83,0-11.021-1.058-15.576-3.185c-4.558-2.117-8.202-4.947-10.927-8.48c-2.726-3.538-4.768-7.404-6.133-11.598
		C1353.207,3024.41,1352.479,3020.044,1352.386,3015.519z M1387.493,2963.47c-14.854,0-27.018,4.88-36.515,14.64
		c-9.492,9.757-14.24,22.181-14.24,37.267c0,6.695,1.058,13.038,3.17,19.025c2.117,5.985,5.173,11.385,9.167,16.195
		c3.992,4.81,9.283,8.65,15.86,11.528c6.581,2.872,14.006,4.313,22.275,4.313c8.272,0,15.695-1.395,22.271-4.172
		c6.587-2.788,11.868-6.582,15.865-11.387c3.996-4.813,7.05-10.257,9.161-16.337c2.117-6.085,3.173-12.515,3.173-19.308
		c0-14.33-4.37-26.513-13.109-36.563C1415.824,2968.634,1403.465,2963.564,1387.493,2963.47z M1188.586,2965.312h-18.752v0.708
		l38.064,57.705v40.592h15.789v-40.592l39.194-57.705v-0.708h-19.034l-28.053,43.702L1188.586,2965.312z M841.323,2856.385h85.578
		v50.59H775.998v-269.047h65.325V2856.385z"/>
</g>
</svg>
